<?xml version="1.0" encoding="UTF-8"?>
<svg id="Layer_1" data-name="Layer 1" xmlns="http://www.w3.org/2000/svg" viewBox="80.3 73.5 379.6 138.7">
  <defs>
    <style>
      .cls-1 {
        fill: #452e20;
      }

      .cls-2 {
        fill: #f96c43;
      }

      .cls-3 {
        fill: #fbdfc5;
      }
    </style>
  </defs>
  <path class="cls-1" d="M162.59,104.1v92.08c0,1.32-.34,2.31-1.03,2.99-.7.68-1.68,1.02-2.98,1.02h-8.75c-1.31,0-2.31-.34-2.99-1.02s-1.02-1.67-1.02-2.99v-40.04h-47.76v40.04c0,1.32-.34,2.31-1.03,2.99-.69.68-1.68,1.02-2.97,1.02h-8.76c-1.31,0-2.31-.34-2.99-1.02s-1.02-1.67-1.02-2.99v-92.08c0-1.29.34-2.28,1.02-2.97.68-.69,1.67-1.03,2.99-1.03h8.76c1.29,0,2.28.34,2.97,1.03.69.69,1.03,1.68,1.03,2.97v36.03h47.76v-36.03c0-1.29.34-2.28,1.02-2.97.68-.69,1.67-1.03,2.99-1.03h8.75c1.3,0,2.28.34,2.98,1.03.69.69,1.03,1.68,1.03,2.97Z"/>
  <path class="cls-1" d="M310.93,199.39c-.74-.53-1.31-1.34-1.7-2.42l-32.31-90.33c-.33-.98-.5-1.83-.5-2.55s.17-1.41.5-2.08c.21-.44.5-.8.86-1.08.36-.28.82-.49,1.38-.63.55-.13,1.2-.2,1.96-.2h8.07c.79,0,1.48.11,2.06.34.58.23,1.08.58,1.49,1.06.41.48.75,1.08,1.02,1.81l28.18,80.23h-.94l28.18-80.23c.27-.73.61-1.33,1.02-1.81s.9-.83,1.49-1.06c.58-.23,1.27-.34,2.06-.34h8.07c.75,0,1.4.07,1.95.2.55.14,1.01.34,1.38.63.36.28.65.64.86,1.08.35.67.53,1.36.53,2.08s-.18,1.57-.53,2.55l-32.31,90.33c-.4,1.08-.96,1.89-1.7,2.42-.74.53-1.69.8-2.86.8h-15.33c-1.17,0-2.12-.27-2.86-.8Z"/>
  <path class="cls-1" d="M376.4,101.13c.68-.69,1.67-1.03,2.99-1.03h16.33c1.1,0,2.04.22,2.8.66.76.44,1.41,1.15,1.96,2.13l43.04,77.1-.63.19-.72-19.96v-56.11c0-1.29.34-2.28,1.02-2.97.68-.69,1.67-1.03,2.99-1.03h8.76c1.29,0,2.28.34,2.97,1.03.69.69,1.03,1.68,1.03,2.97v92.08c0,1.31-.34,2.31-1.03,2.99s-1.68,1.02-2.97,1.02h-14.73c-1.11,0-2.04-.22-2.8-.66-.76-.44-1.41-1.15-1.96-2.13l-44.73-80.14.63-.19.81,22.99v56.11c0,1.31-.34,2.31-1.03,2.99-.69.68-1.68,1.02-2.97,1.02h-8.76c-1.31,0-2.31-.34-2.99-1.02-.68-.68-1.02-1.67-1.02-2.99v-92.08c0-1.29.34-2.28,1.02-2.97Z"/>
  <g>
    <path class="cls-1" d="M276.66,149.3c0,1.19-.04,2.38-.13,3.56-1.62,23.91-19.47,43.37-42.62,47.44-1.63.29-3.28.49-4.96.62-1.34.12-2.69.16-4.06.16-1.51,0-3.01-.07-4.49-.2-1.65-.13-3.27-.35-4.85-.64-2.71-.49-5.35-1.2-7.9-2.1-1.61-.56-3.18-1.2-4.71-1.93-2.65-1.23-5.16-2.69-7.54-4.35-1.53-1.05-2.99-2.19-4.4-3.4-2.46-2.14-4.73-4.51-6.75-7.07-1.33-1.68-2.55-3.44-3.66-5.28-2.05-3.38-3.72-7.02-4.96-10.84-.86-2.67-1.52-5.44-1.94-8.27-.38-2.51-.57-5.08-.57-7.68,0-28.59,23.18-51.77,51.77-51.77,1.52,0,3.03.07,4.52.2,2.84.23,5.61.71,8.3,1.4,3.69.94,7.23,2.28,10.55,3.97,1.9.95,3.73,2.03,5.47,3.22,2.58,1.72,4.99,3.68,7.21,5.83,1.32,1.28,2.57,2.63,3.75,4.04,1.75,2.11,3.34,4.35,4.74,6.72.87,1.44,1.66,2.95,2.37,4.48,1.09,2.33,2.02,4.75,2.74,7.25.47,1.56.85,3.15,1.16,4.76.53,2.74.85,5.55.92,8.43.02.49.03.98.03,1.47Z"/>
    <g>
      <path class="cls-3" d="M229.41,97.73c-24.44,12.81-44.4,33.35-55.71,59.25.42,2.84,1.08,5.6,1.94,8.27,11.05-30.01,33.85-53.26,62.08-66.13-2.69-.69-5.46-1.16-8.3-1.4Z"/>
      <path class="cls-3" d="M248.26,103.1c-5.62,2.13-11.1,4.73-16.39,7.76-25.44,14.59-43.56,37.68-51.28,65.24,1.11,1.84,2.34,3.6,3.66,5.28l.32-1.28c6.93-27.5,24.58-50.58,49.73-65,6.24-3.58,12.74-6.51,19.44-8.79-1.74-1.19-3.58-2.27-5.47-3.22Z"/>
      <path class="cls-3" d="M260.95,112.15c-32.93,9.59-59.82,35.21-68.56,69.92-.53,2.13-1,4.26-1.38,6.39,1.4,1.21,2.87,2.35,4.4,3.4.43-2.86,1.01-5.73,1.72-8.58,8.51-33.81,35.15-58.52,67.56-67.08-1.18-1.41-2.43-2.76-3.75-4.04Z"/>
      <path class="cls-3" d="M269.43,122.91c-8.39,1.97-16.51,5.15-24.13,9.52-20.41,11.7-34.75,30.45-40.37,52.8-.92,3.65-1.58,7.32-2,10.97,1.53.73,3.1,1.37,4.71,1.93.37-3.9,1.04-7.8,2.03-11.7,5.3-21.05,18.82-38.71,38.06-49.75,7.59-4.35,15.69-7.46,24.07-9.29-.72-1.53-1.5-3.03-2.37-4.48Z"/>
      <path class="cls-3" d="M274.55,134.64c-7.86,1.64-15.46,4.5-22.55,8.57-17.43,9.99-29.69,26.05-34.51,45.19-.99,3.94-1.64,7.91-1.94,11.84,1.59.29,3.21.51,4.85.64.27-3.75.87-7.53,1.82-11.29,4.5-17.85,15.94-32.82,32.21-42.15,6.69-3.84,13.86-6.53,21.28-8.04-.31-1.61-.7-3.2-1.16-4.76Z"/>
      <path class="cls-3" d="M276.63,147.83c-2.51.51-5,1.19-7.44,2.02-19.36,6.55-33.81,21.92-38.64,41.11-.83,3.3-1.37,6.63-1.6,9.96,1.68-.13,3.33-.33,4.96-.62.23-2.72.7-5.45,1.38-8.15,4.43-17.58,17.68-31.66,35.47-37.67,1.9-.65,3.83-1.18,5.77-1.62.09-1.17.13-2.36.13-3.56,0-.49,0-.98-.03-1.47Z"/>
    </g>
    <path class="cls-2" d="M276.65,87.09c-.24-1.62-1.13-3.06-2.53-4.05-1.23-.87-2.75-1.32-4.27-1.28-1.21.04-2.35.39-3.37,1.02.26-1.17.21-2.36-.15-3.52-.45-1.45-1.38-2.74-2.6-3.61h0c-1.39-.99-3.04-1.37-4.65-1.06-1.82.34-3.5,1.55-4.88,3.47-1.11,1.56-1.71,3.57-1.8,5.97-.07,1.9.19,4.04.76,6.37.33,1.34.72,2.59,1.1,3.67-.11.13-.22.26-.33.4,0,0-78.49,114.93-78.49,114.93-.86,1.31,1.05,2.47,1.89,1.35l82.83-111.85c.21-.3.36-.59.49-.89.93-.01,1.94-.06,2.99-.16,2.39-.23,4.5-.69,6.27-1.37,2.24-.87,3.94-2.1,5.05-3.66,1.37-1.93,1.95-3.91,1.68-5.75Z"/>
    <g>
      <path class="cls-1" d="M273.75,166.5c-.89,2.55-1.98,4.99-3.24,7.33-1.52,2.83-3.3,5.5-5.3,7.99-1.87,2.32-3.96,4.48-6.2,6.45-2.83,2.49-5.93,4.67-9.26,6.48-3.29,1.81-6.8,3.27-10.49,4.32-28.35-11.92-51.46-33.93-64.79-61.51.88-3.75,2.15-7.33,3.76-10.7,1.66-3.41,3.67-6.62,5.99-9.57,1.84-2.33,3.9-4.52,6.11-6.51,2.38-2.13,4.96-4.05,7.71-5.71,2.26-1.38,4.64-2.6,7.13-3.61,7.48,33.37,34.6,59.33,68.59,65.06Z"/>
      <g>
        <path class="cls-3" d="M178.22,126.85c-1.61,3.38-2.89,6.96-3.76,10.7,13.33,27.58,36.44,49.59,64.79,61.51,3.69-1.04,7.2-2.5,10.49-4.32-32.56-11.15-58.74-36.14-71.52-67.9Z"/>
        <path class="cls-3" d="M190.32,110.77c-2.21,2-4.27,4.18-6.11,6.51,11.44,34.43,39.59,61.31,74.79,70.98,2.24-1.97,4.33-4.13,6.2-6.45-36.01-8.28-64.76-35.75-74.88-71.05Z"/>
        <path class="cls-3" d="M205.16,101.45c-2.49,1.01-4.87,2.23-7.13,3.61,8.6,34.85,36.97,61.98,72.47,68.77,1.26-2.33,2.35-4.78,3.24-7.33-33.99-5.73-61.11-31.68-68.59-65.06Z"/>
      </g>
    </g>
  </g>
</svg>